<svg width="272" height="70" viewBox="0 0 272 70" fill="none" xmlns="http://www.w3.org/2000/svg">
<path d="M90.6899 39.7392C90.7534 39.4704 90.834 39.206 90.9314 38.9476C91.0253 38.7061 91.1058 38.4847 91.1796 38.2768L102.705 9.59873C102.778 9.39914 102.897 9.2198 103.053 9.07548C103.158 8.97669 103.281 8.90017 103.416 8.85058C103.551 8.80099 103.695 8.77937 103.838 8.78702H107.28C107.414 8.77498 107.549 8.79148 107.676 8.83541C107.803 8.87935 107.919 8.94974 108.018 9.04194C108.14 9.18197 108.25 9.33235 108.346 9.4914L109.051 11.1618L120.341 39.3971C120.343 39.4742 120.354 39.5508 120.374 39.6252C120.383 39.7144 120.383 39.8042 120.374 39.8935C120.374 40.3161 120.066 40.5643 119.435 40.5643H115.249C114.994 40.58 114.74 40.5143 114.525 40.3765C114.331 40.2165 114.183 40.0082 114.095 39.7727L113.713 38.7933L112.901 36.7406C112.626 36.0698 112.364 35.3989 112.11 34.6677H98.921C98.5454 35.6605 98.1898 36.5997 97.841 37.4785C97.4922 38.3573 97.1702 39.122 96.9488 39.7727C96.8798 40.0097 96.7332 40.2166 96.5324 40.3602C96.3317 40.5038 96.0884 40.5757 95.8419 40.5643H91.562C91.329 40.5789 91.0966 40.5277 90.8912 40.4167C90.8128 40.3716 90.7482 40.3058 90.7044 40.2266C90.6607 40.1474 90.6394 40.0577 90.643 39.9673C90.6452 39.8891 90.6611 39.8119 90.6899 39.7392ZM105.569 16.9309C104.795 18.8942 104.028 20.9313 103.268 23.0422C102.508 25.1531 101.743 27.1857 100.974 29.1401H110.077L105.569 16.9309Z" fill="white"/>
<path d="M144.048 17.2533C143.868 17.2551 143.691 17.2063 143.538 17.1124C143.35 17.0005 143.171 16.875 143.001 16.7368H142.954C142.625 16.4149 142.275 16.1146 141.908 15.8379C140.966 15.1047 139.907 14.5375 138.775 14.1608C138.18 13.9612 137.557 13.8593 136.93 13.8589C136.222 13.8639 135.518 13.9655 134.837 14.1608C134.287 14.312 133.767 14.5571 133.301 14.8853C132.908 15.1671 132.586 15.537 132.362 15.9653C132.146 16.3795 132.036 16.8402 132.04 17.307C132.035 17.7976 132.207 18.2735 132.523 18.6487C132.888 19.0699 133.329 19.4181 133.824 19.675C134.432 19.9966 135.065 20.2703 135.716 20.4934C136.427 20.7484 137.178 20.9899 137.963 21.2314C138.855 21.5064 139.748 21.7949 140.646 22.1101C141.511 22.4146 142.358 22.7685 143.182 23.1701C143.965 23.5473 144.718 23.9823 145.436 24.4715C146.115 24.93 146.724 25.486 147.241 26.1217C147.748 26.7447 148.154 27.4444 148.442 28.1946C148.743 29.0195 148.89 29.8925 148.878 30.7706C148.898 32.2289 148.576 33.6717 147.938 34.9834C147.312 36.229 146.424 37.325 145.336 38.1967C144.178 39.1181 142.859 39.8144 141.445 40.2494C139.893 40.7365 138.275 40.9786 136.648 40.9672C135.546 40.9678 134.447 40.8372 133.375 40.5781C132.3 40.3251 131.255 39.9609 130.255 39.4914C129.258 39.0198 128.31 38.4513 127.424 37.7942C126.547 37.1434 125.748 36.3938 125.043 35.5603L124.996 35.4731C124.725 35.2123 124.558 34.8618 124.526 34.487C124.527 34.3283 124.571 34.1728 124.654 34.0375C124.765 33.8667 124.896 33.7092 125.043 33.568L125.714 32.8636C125.928 32.6825 126.156 32.4745 126.385 32.2464C126.613 32.0183 126.868 31.8104 127.109 31.6225C127.351 31.4347 127.579 31.2804 127.78 31.153C127.928 31.0474 128.102 30.9826 128.283 30.9651C128.484 30.9636 128.68 31.0297 128.84 31.153C128.992 31.2625 129.136 31.3836 129.269 31.5152L129.356 31.6024C129.884 32.0907 130.446 32.5391 131.04 32.9441C131.649 33.3698 132.288 33.7509 132.952 34.0845C133.577 34.4088 134.23 34.6739 134.904 34.8761C135.497 35.0606 136.114 35.1578 136.736 35.1645C137.479 35.1722 138.22 35.0728 138.936 34.8694C139.572 34.6905 140.173 34.4047 140.714 34.0241C141.198 33.6676 141.598 33.2098 141.887 32.6825C142.174 32.158 142.321 31.5693 142.317 30.9718C142.33 30.3837 142.133 29.8102 141.76 29.3551C141.352 28.8767 140.858 28.4786 140.304 28.1812C139.664 27.8274 138.989 27.5375 138.292 27.3158C137.54 27.0743 136.789 26.8507 136.038 26.645C134.477 26.1816 132.951 25.61 131.469 24.9343C130.284 24.4055 129.178 23.7146 128.182 22.8816C127.359 22.1712 126.694 21.2959 126.23 20.3123C125.776 19.3096 125.548 18.2197 125.559 17.1192C125.536 15.8828 125.802 14.6581 126.336 13.5425C126.869 12.4268 127.655 11.451 128.632 10.6926C129.696 9.87415 130.901 9.25796 132.187 8.87463C133.689 8.4153 135.252 8.18906 136.823 8.2038C138.165 8.20974 139.499 8.41548 140.781 8.81426C142.088 9.20642 143.338 9.77037 144.497 10.4913C144.837 10.706 145.186 10.9475 145.544 11.2158C145.901 11.4842 146.23 11.7592 146.53 12.041C146.801 12.2872 147.048 12.559 147.268 12.8527C147.428 13.0429 147.528 13.2763 147.556 13.5235C147.551 13.7072 147.508 13.8878 147.429 14.0535C147.343 14.2261 147.235 14.3863 147.107 14.5297L146.436 15.2006L145.765 15.905C145.555 16.1422 145.331 16.3663 145.094 16.5758C144.895 16.7479 144.687 16.9092 144.47 17.0588C144.349 17.1593 144.203 17.2264 144.048 17.2533Z" fill="white"/>
<path d="M173.316 17.2533C173.134 17.2542 172.955 17.2055 172.799 17.1124C172.614 17.0003 172.437 16.8747 172.269 16.7367H172.222C171.893 16.4148 171.544 16.1146 171.176 15.8378C170.715 15.4883 170.229 15.1744 169.72 14.8987C169.183 14.6058 168.622 14.359 168.043 14.1607C167.449 13.9612 166.826 13.8593 166.198 13.8589C165.483 13.85 164.769 13.9403 164.079 14.1272C163.529 14.2784 163.009 14.5235 162.542 14.8517C162.149 15.1353 161.826 15.5046 161.596 15.9317C161.386 16.3476 161.278 16.8075 161.281 17.2734C161.274 17.7632 161.443 18.2393 161.757 18.6151C162.136 19.0382 162.592 19.3864 163.099 19.6414C163.706 19.9655 164.339 20.2392 164.991 20.4599C165.702 20.7148 166.447 20.9563 167.231 21.1978C168.13 21.4728 169.023 21.7613 169.915 22.0766C170.763 22.3858 171.594 22.7419 172.404 23.1432C173.188 23.5219 173.943 23.9568 174.664 24.4446C175.342 24.9048 175.95 25.4607 176.469 26.0948C176.977 26.7163 177.38 27.4164 177.663 28.1677C177.97 28.9913 178.12 29.865 178.106 30.7437C178.127 32.2029 177.802 33.6464 177.16 34.9565C176.538 36.2032 175.652 37.2997 174.564 38.1698C173.406 39.0912 172.087 39.7875 170.673 40.2226C169.121 40.7096 167.503 40.9518 165.876 40.9403C164.774 40.9409 163.675 40.8103 162.603 40.5513C161.528 40.2982 160.483 39.934 159.483 39.4645C158.486 38.9944 157.537 38.4259 156.652 37.7673C155.783 37.115 154.991 36.3655 154.291 35.5334L154.251 35.4462C153.98 35.1854 153.813 34.8349 153.781 34.4601C153.782 34.3014 153.826 34.146 153.909 34.0107C154.02 33.8414 154.148 33.684 154.291 33.5411L154.962 32.8367C155.177 32.6556 155.405 32.4476 155.633 32.2195C155.861 31.9915 156.122 31.7835 156.364 31.5957C156.605 31.4078 156.827 31.2535 157.035 31.1261C157.183 31.0205 157.357 30.9557 157.538 30.9382C157.739 30.9377 157.935 31.0038 158.095 31.1261C158.246 31.2374 158.389 31.3584 158.524 31.4883L158.605 31.5755C159.131 32.0622 159.691 32.5106 160.282 32.9172C160.894 33.3414 161.535 33.7225 162.2 34.0576C162.824 34.3843 163.477 34.6494 164.152 34.8492C164.746 35.0337 165.362 35.1309 165.984 35.1377C166.727 35.1448 167.468 35.0454 168.184 34.8425C168.819 34.6651 169.418 34.3791 169.955 33.9972C170.443 33.6428 170.846 33.1846 171.136 32.6556C171.419 32.1305 171.565 31.5418 171.558 30.945C171.574 30.3577 171.379 29.7843 171.008 29.3283C170.599 28.8514 170.105 28.4535 169.553 28.1543C168.912 27.8005 168.238 27.5106 167.54 27.2889C166.789 27.0474 166.037 26.8193 165.279 26.6181C163.721 26.1549 162.196 25.5833 160.718 24.9075C159.541 24.3853 158.442 23.7036 157.451 22.8816C156.625 22.173 155.96 21.2973 155.499 20.3123C155.045 19.3095 154.816 18.2197 154.828 17.1191C154.808 15.8826 155.076 14.6584 155.61 13.5432C156.145 12.4279 156.931 11.4521 157.907 10.6925C158.969 9.87547 160.172 9.25937 161.456 8.87459C162.96 8.41572 164.525 8.18949 166.098 8.20376C167.438 8.20876 168.77 8.41453 170.049 8.81422C171.359 9.20478 172.611 9.7688 173.772 10.4913C174.112 10.706 174.461 10.9475 174.819 11.2158C175.176 11.4841 175.505 11.7592 175.805 12.0409C176.074 12.2889 176.321 12.5605 176.543 12.8526C176.703 13.0429 176.803 13.2763 176.831 13.5235C176.827 13.708 176.781 13.8893 176.697 14.0534C176.616 14.2272 176.51 14.3877 176.382 14.5297L175.711 15.2005L175.04 15.9049C174.83 16.1422 174.606 16.3662 174.369 16.5757C174.141 16.7703 173.933 16.9313 173.752 17.0587C173.627 17.1614 173.476 17.2286 173.316 17.2533Z" fill="white"/>
<path d="M190.463 27.6444C190.446 28.7413 190.618 29.8329 190.973 30.8711C191.283 31.7702 191.774 32.5965 192.415 33.2995C193.038 33.9606 193.798 34.4779 194.642 34.8156C195.556 35.1745 196.531 35.3522 197.513 35.3389C198.538 35.3549 199.555 35.1655 200.505 34.7821C201.359 34.4352 202.123 33.8984 202.739 33.2123C203.367 32.5031 203.842 31.6718 204.134 30.7705C204.458 29.7606 204.617 28.705 204.604 27.6444V9.72652C204.602 9.60129 204.626 9.47703 204.674 9.36156C204.723 9.24609 204.795 9.14194 204.886 9.05568C205.064 8.87916 205.305 8.78031 205.556 8.78064H209.689C209.967 8.77374 210.238 8.87195 210.447 9.05568C210.544 9.13782 210.623 9.24056 210.676 9.35653C210.73 9.47251 210.757 9.59886 210.755 9.72652V27.8792C210.798 29.8593 210.435 31.8273 209.689 33.6618C209.049 35.2062 208.082 36.5936 206.854 37.7285C205.627 38.8634 204.168 39.7188 202.578 40.2359C200.931 40.7805 199.207 41.0546 197.473 41.0476C195.734 41.0578 194.006 40.765 192.368 40.1823C190.812 39.6243 189.384 38.7598 188.168 37.6398C186.928 36.4825 185.945 35.0768 185.284 33.5142C184.545 31.7268 184.182 29.8064 184.217 27.8725V9.72652C184.213 9.47972 184.302 9.24035 184.465 9.05568C184.54 8.9609 184.636 8.88488 184.746 8.83364C184.855 8.78241 184.975 8.75737 185.096 8.76052H189.456C189.705 8.7727 189.942 8.86979 190.127 9.03556C190.233 9.11296 190.318 9.21393 190.378 9.33041C190.437 9.44689 190.469 9.57564 190.469 9.70639L190.463 27.6444Z" fill="white"/>
<path d="M218.188 9.79357C218.188 9.12274 218.504 8.78732 219.128 8.78732H232.209C233.592 8.77837 234.962 9.05469 236.234 9.59903C237.456 10.1196 238.569 10.8661 239.514 11.7994C240.469 12.7544 241.225 13.8883 241.741 15.136C242.257 16.3838 242.521 17.721 242.52 19.0712C242.521 20.0253 242.384 20.9745 242.11 21.8887C241.584 23.6471 240.594 25.2317 239.246 26.4772C238.577 27.094 237.83 27.6217 237.025 28.0469L242.58 39.015C242.61 39.1648 242.662 39.3095 242.734 39.4443C242.803 39.5841 242.84 39.7378 242.842 39.8938C242.842 40.3164 242.587 40.5646 242.09 40.5646H237.133C236.896 40.5669 236.665 40.4854 236.482 40.3344C236.3 40.1835 236.176 39.9728 236.133 39.7395L230.954 29.4825H230.216H229.13H224.434V39.612C224.434 40.2292 224.105 40.5311 223.455 40.5311H219.154C218.912 40.539 218.674 40.4605 218.484 40.3097C218.397 40.2219 218.329 40.1168 218.285 40.0013C218.241 39.8857 218.222 39.7623 218.229 39.6389L218.188 9.79357ZM236.207 19.098C236.207 18.4891 236.091 17.8857 235.865 17.3203C235.422 16.1499 234.552 15.191 233.43 14.637C232.849 14.3547 232.217 14.1927 231.572 14.1607H230.096H224.394V24.0487H230.84C231.091 24.0487 231.359 24.0353 231.645 24.0085C232.284 23.9693 232.91 23.81 233.49 23.5389C234.039 23.2809 234.53 22.9134 234.932 22.4589C235.336 22.0095 235.653 21.4885 235.865 20.9227C236.092 20.3411 236.208 19.7222 236.207 19.098Z" fill="white"/>
<path d="M248.952 9.8137C248.952 9.14287 249.261 8.78733 249.891 8.78733H270.499C270.646 8.77183 270.795 8.79176 270.933 8.84545C271.07 8.89913 271.193 8.98502 271.291 9.09591C271.453 9.32479 271.536 9.60051 271.526 9.88078V13.6576C271.524 13.9069 271.428 14.1464 271.257 14.3284C271.155 14.4341 271.03 14.516 270.892 14.5682C270.754 14.6203 270.606 14.6415 270.459 14.6303H255.258V21.1105H266.991C267.109 21.0901 267.231 21.0957 267.346 21.127C267.462 21.1583 267.57 21.2145 267.662 21.2916C267.757 21.392 267.829 21.5117 267.873 21.6426C267.917 21.7735 267.932 21.9124 267.917 22.0497V25.9204C267.918 26.1601 267.846 26.3944 267.709 26.5912C267.628 26.69 267.525 26.7682 267.409 26.8196C267.292 26.8709 267.165 26.8938 267.038 26.8864H255.258V34.6747H271.016C271.158 34.655 271.303 34.6684 271.439 34.7137C271.575 34.7591 271.699 34.8353 271.801 34.9364C271.951 35.1718 272.019 35.4499 271.995 35.7279V39.6523C271.995 40.2561 271.68 40.5512 271.056 40.5512H249.891C249.65 40.5599 249.412 40.484 249.221 40.3366C249.126 40.2537 249.052 40.15 249.004 40.0336C248.956 39.9171 248.936 39.7912 248.946 39.6657L248.952 9.8137Z" fill="white"/>
<path d="M123.513 52.2374C123.623 52.2359 123.729 52.2714 123.815 52.3381C123.862 52.3755 123.899 52.4224 123.926 52.4756C123.953 52.5288 123.967 52.5872 123.97 52.6466V53.5925C123.972 53.709 123.934 53.8228 123.862 53.9145C123.817 53.961 123.763 53.997 123.703 54.0202C123.642 54.0434 123.578 54.0531 123.513 54.0487H119.636V65.6608C119.635 65.7697 119.595 65.8746 119.522 65.9559C119.483 66.0005 119.434 66.0357 119.38 66.0589C119.325 66.0821 119.266 66.0928 119.207 66.0901H118.261C118.151 66.0892 118.045 66.046 117.966 65.9694C117.924 65.93 117.89 65.8821 117.868 65.8289C117.846 65.7757 117.836 65.7183 117.838 65.6608V54.0487H113.934C113.822 54.0514 113.714 54.0105 113.632 53.9346C113.587 53.8908 113.552 53.8372 113.53 53.778C113.507 53.7188 113.499 53.6554 113.505 53.5925V52.6466C113.502 52.591 113.512 52.5356 113.535 52.4844C113.557 52.4333 113.59 52.3879 113.632 52.3515C113.714 52.2756 113.822 52.2347 113.934 52.2374H123.513Z" fill="white"/>
<path d="M135.743 52.2373C136.024 52.2373 136.172 52.3849 136.172 52.6868V53.6058C136.173 53.7179 136.135 53.8268 136.065 53.9144C136.021 53.9611 135.968 53.9974 135.909 54.0206C135.85 54.0438 135.786 54.0534 135.723 54.0485H128.202V57.879H134.119C134.224 57.876 134.327 57.9118 134.408 57.9796C134.451 58.0218 134.485 58.0732 134.506 58.1302C134.527 58.1871 134.534 58.248 134.528 58.3083V59.2609C134.53 59.368 134.494 59.4723 134.428 59.5561C134.39 59.6009 134.343 59.6364 134.289 59.6596C134.236 59.6829 134.178 59.6934 134.119 59.6902H128.202V64.2787H135.763C135.822 64.2708 135.881 64.2766 135.938 64.2958C135.994 64.315 136.045 64.3471 136.086 64.3894C136.128 64.4317 136.159 64.4831 136.178 64.5396C136.196 64.5961 136.201 64.6561 136.192 64.7148V65.6741C136.2 65.7305 136.194 65.788 136.176 65.842C136.158 65.896 136.128 65.9451 136.087 65.9854C136.047 66.0257 135.998 66.0561 135.944 66.0742C135.89 66.0924 135.833 66.0978 135.776 66.09H126.787C126.732 66.0988 126.677 66.0947 126.624 66.0781C126.571 66.0616 126.523 66.0329 126.483 65.9945C126.444 65.9561 126.413 65.909 126.395 65.8568C126.377 65.8047 126.371 65.749 126.378 65.6942V52.6666C126.378 52.3782 126.512 52.2373 126.787 52.2373H135.743Z" fill="white"/>
<path d="M149.461 53.4046C149.527 53.4521 149.584 53.5112 149.629 53.579C149.67 53.6358 149.693 53.7035 149.696 53.7735C149.698 53.8569 149.67 53.9382 149.616 54.0016L149.126 54.82C149.018 54.9676 148.911 55.0481 148.797 55.0481C148.751 55.0567 148.703 55.0567 148.656 55.0481C148.593 55.0169 148.533 54.981 148.475 54.9408C148.042 54.628 147.565 54.3815 147.06 54.2096C146.555 54.0387 146.029 53.9394 145.497 53.9144C144.735 53.9051 143.979 54.0511 143.276 54.3437C142.635 54.6131 142.048 54.9973 141.545 55.4774C141.053 55.9631 140.659 56.5394 140.385 57.1746C140.107 57.8092 139.963 58.4943 139.962 59.1871C139.957 59.9115 140.103 60.6289 140.392 61.2935C140.664 61.9259 141.056 62.4998 141.545 62.984C142.031 63.4491 142.6 63.8179 143.223 64.0708C143.861 64.3337 144.545 64.4682 145.235 64.4666C145.491 64.4665 145.747 64.4463 146 64.4062C146.264 64.3683 146.525 64.3054 146.778 64.2184C147.052 64.1166 147.321 64.0002 147.583 63.8695C147.898 63.7184 148.203 63.5458 148.495 63.353C148.582 63.2977 148.681 63.2633 148.784 63.2524C148.898 63.2524 148.998 63.3329 149.092 63.4872L149.622 64.3593C149.664 64.4281 149.687 64.5068 149.689 64.5873C149.689 64.6612 149.668 64.7335 149.629 64.7962C149.589 64.8589 149.534 64.9096 149.468 64.9429C148.877 65.3682 148.226 65.7028 147.536 65.9357C146.184 66.37 144.736 66.4073 143.363 66.043C142.769 65.879 142.198 65.6377 141.666 65.3252C141.133 65.0155 140.642 64.639 140.204 64.205C139.77 63.7783 139.396 63.2955 139.09 62.7694C138.782 62.2364 138.543 61.666 138.379 61.0722C138.048 59.8327 138.048 58.5281 138.379 57.2887C138.704 56.0995 139.333 55.0153 140.204 54.1425C140.632 53.7082 141.117 53.3337 141.646 53.0289C142.181 52.7168 142.754 52.4734 143.35 52.3044C143.968 52.1335 144.607 52.0477 145.248 52.0495C145.998 52.0442 146.744 52.162 147.455 52.3983C148.171 52.6295 148.848 52.9689 149.461 53.4046Z" fill="white"/>
<path d="M161.939 52.6464C161.939 52.5392 161.98 52.4361 162.053 52.3579C162.091 52.3177 162.136 52.2861 162.187 52.2653C162.238 52.2444 162.293 52.2348 162.348 52.2372H163.294C163.405 52.2383 163.512 52.2787 163.596 52.3512C163.641 52.3859 163.677 52.4307 163.702 52.482C163.726 52.5332 163.738 52.5896 163.737 52.6464V65.6739C163.737 65.949 163.589 66.0898 163.294 66.0898H162.341C162.285 66.0979 162.228 66.0927 162.174 66.0745C162.12 66.0563 162.072 66.0258 162.032 65.9853C161.992 65.9448 161.962 65.8956 161.945 65.8415C161.928 65.7874 161.923 65.73 161.932 65.6739V59.6901H154.077V65.6739C154.077 65.949 153.929 66.0898 153.627 66.0898H152.688C152.632 66.0979 152.575 66.0927 152.521 66.0745C152.467 66.0563 152.418 66.0258 152.378 65.9853C152.339 65.9448 152.309 65.8956 152.292 65.8415C152.274 65.7874 152.27 65.73 152.279 65.6739V52.6464C152.277 52.54 152.315 52.4368 152.386 52.3579C152.425 52.3179 152.473 52.2865 152.525 52.2657C152.576 52.2449 152.632 52.2352 152.688 52.2372H153.621C153.733 52.2363 153.842 52.2796 153.923 52.3579C153.963 52.3942 153.995 52.4386 154.017 52.4884C154.039 52.5381 154.05 52.592 154.05 52.6464V57.8788H161.939V52.6464Z" fill="white"/>
<path d="M177.301 66.0898C177.23 66.0865 177.16 66.0659 177.098 66.0297C177.036 65.9934 176.984 65.9427 176.946 65.8818L168.802 54.9674V65.7007C168.809 65.7582 168.802 65.8164 168.783 65.8709C168.763 65.9255 168.732 65.9748 168.69 66.015C168.649 66.0553 168.598 66.0854 168.543 66.103C168.488 66.1206 168.43 66.1253 168.372 66.1166H167.433C167.377 66.1247 167.32 66.1195 167.266 66.1013C167.212 66.0831 167.163 66.0526 167.124 66.0121C167.084 65.9716 167.054 65.9224 167.037 65.8683C167.019 65.8142 167.015 65.7568 167.024 65.7007V52.6664C167.019 52.5536 167.057 52.4429 167.131 52.3579C167.171 52.3178 167.218 52.2864 167.27 52.2657C167.322 52.2449 167.377 52.2351 167.433 52.2371H168.681C168.759 52.2355 168.837 52.2538 168.906 52.2901C168.975 52.3265 169.034 52.3798 169.077 52.4451L177.013 62.9905V52.5859C177.015 52.5356 177.028 52.4863 177.05 52.4411C177.072 52.3959 177.104 52.3557 177.142 52.323C177.18 52.2904 177.225 52.2659 177.273 52.2511C177.321 52.2363 177.372 52.2316 177.422 52.2371H178.361C178.476 52.2395 178.587 52.2796 178.676 52.3512C178.721 52.3859 178.758 52.4307 178.782 52.4819C178.807 52.5332 178.819 52.5895 178.817 52.6463V65.6739C178.817 65.9489 178.67 66.0898 178.361 66.0898H177.301Z" fill="white"/>
<path d="M188.792 52.0495C190.051 52.0489 191.288 52.3847 192.374 53.0222C192.898 53.333 193.383 53.707 193.816 54.1357C194.25 54.5648 194.624 55.0498 194.93 55.578C195.241 56.1176 195.482 56.6947 195.648 57.2954C195.821 57.9131 195.907 58.5522 195.902 59.1938C195.906 59.8327 195.822 60.4691 195.654 61.0856C195.489 61.6798 195.248 62.2503 194.936 62.7828C194.623 63.3036 194.249 63.7855 193.823 64.2184C193.391 64.6465 192.906 65.0184 192.381 65.3252C190.712 66.2831 188.732 66.5411 186.873 66.043C186.269 65.8812 185.689 65.6398 185.149 65.3252C184.625 65.0136 184.143 64.6372 183.713 64.2049C183.28 63.7783 182.905 63.2955 182.6 62.7694C182.288 62.2377 182.049 61.667 181.889 61.0722C181.549 59.8339 181.549 58.5269 181.889 57.2887C182.216 56.0988 182.847 55.0145 183.72 54.1425C184.149 53.7082 184.634 53.3336 185.162 53.0289C185.698 52.7168 186.27 52.4734 186.866 52.3044C187.493 52.131 188.141 52.0452 188.792 52.0495ZM183.425 59.1469C183.424 59.6254 183.49 60.1017 183.62 60.5623C183.745 61.0055 183.926 61.4313 184.156 61.8302C184.615 62.6199 185.272 63.2765 186.061 63.7354C186.459 63.9686 186.885 64.149 187.329 64.272C188.253 64.5316 189.23 64.5316 190.153 64.272C191.035 64.0315 191.841 63.5697 192.495 62.9304C192.814 62.6068 193.092 62.2438 193.32 61.8503C193.553 61.4528 193.733 61.0266 193.856 60.5824C193.986 60.1219 194.052 59.6455 194.051 59.167C194.055 58.4564 193.912 57.7526 193.628 57.1008C193.091 55.8309 192.081 54.8202 190.811 54.2833C190.159 54.0002 189.455 53.8562 188.745 53.8607C188.266 53.8599 187.79 53.9254 187.329 54.0553C186.885 54.1782 186.459 54.3587 186.061 54.5919C185.669 54.8184 185.308 55.0959 184.988 55.417C184.666 55.7377 184.386 56.0984 184.156 56.4904C183.926 56.8892 183.745 57.3151 183.62 57.7582C183.501 58.2115 183.445 58.6786 183.452 59.1469H183.425Z" fill="white"/>
<path d="M207.173 64.2787C207.28 64.2773 207.384 64.3183 207.461 64.3927C207.502 64.4354 207.534 64.4859 207.555 64.5413C207.576 64.5967 207.585 64.6556 207.582 64.7147V65.674C207.583 65.7833 207.542 65.8889 207.468 65.9692C207.431 66.0093 207.385 66.0409 207.334 66.0618C207.283 66.0826 207.228 66.0922 207.173 66.0899H199.237C199.181 66.098 199.123 66.0927 199.07 66.0746C199.016 66.0564 198.967 66.0259 198.927 65.9854C198.887 65.9449 198.858 65.8956 198.84 65.8416C198.823 65.7875 198.819 65.7301 198.828 65.674V52.6464C198.826 52.5932 198.836 52.5401 198.855 52.4906C198.875 52.441 198.904 52.3959 198.942 52.358C198.983 52.3162 199.032 52.2838 199.086 52.263C199.141 52.2421 199.199 52.2333 199.257 52.2372H200.216C200.324 52.2332 200.429 52.2691 200.512 52.3379C200.551 52.3788 200.581 52.4273 200.6 52.4804C200.62 52.5334 200.629 52.59 200.626 52.6464V64.2787H207.173Z" fill="white"/>
<path d="M216.116 52.0493C217.377 52.0475 218.616 52.3834 219.705 53.022C220.228 53.3313 220.71 53.7055 221.14 54.1356C221.576 54.5644 221.953 55.0495 222.26 55.5779C222.566 56.1202 222.807 56.6966 222.978 57.2952C223.318 58.5358 223.318 59.8449 222.978 61.0854C222.816 61.6807 222.575 62.2515 222.26 62.7826C221.952 63.3065 221.577 63.7889 221.147 64.2182C220.278 65.0833 219.201 65.7114 218.021 66.0429C217.103 66.2976 216.143 66.3653 215.198 66.242C214.253 66.1187 213.342 65.8069 212.52 65.3251C211.997 65.0117 211.515 64.6355 211.084 64.2048C210.202 63.3121 209.569 62.2037 209.249 60.9901C208.929 59.7766 208.933 58.5002 209.26 57.2885C209.423 56.6924 209.662 56.1198 209.971 55.5846C210.282 55.0588 210.659 54.5743 211.091 54.1423C211.517 53.7082 212 53.3336 212.527 53.0287C213.063 52.718 213.635 52.4747 214.231 52.3042C214.845 52.1349 215.479 52.0492 216.116 52.0493ZM210.749 59.1467C210.746 59.6249 210.809 60.1013 210.937 60.5622C211.063 61.0053 211.243 61.4312 211.473 61.83C211.706 62.2223 211.985 62.585 212.305 62.9101C212.628 63.2314 212.991 63.5088 213.385 63.7352C213.782 63.9708 214.208 64.1514 214.653 64.2719C215.575 64.5312 216.549 64.5312 217.471 64.2719C217.916 64.1514 218.342 63.9708 218.739 63.7352C219.131 63.5087 219.492 63.2313 219.812 62.9101C220.155 62.5906 220.455 62.2275 220.704 61.83C220.935 61.4312 221.115 61.0053 221.241 60.5622C221.555 59.4086 221.474 58.1833 221.013 57.0806C220.742 56.4523 220.355 55.881 219.872 55.3968C219.389 54.9143 218.817 54.5294 218.189 54.2631C217.537 53.9793 216.833 53.8354 216.122 53.8404C215.646 53.8397 215.172 53.9052 214.714 54.035C214.269 54.1555 213.842 54.336 213.446 54.5716C213.051 54.798 212.688 55.0755 212.366 55.3968C212.048 55.7209 211.768 56.0811 211.534 56.4701C211.303 56.869 211.123 57.2948 210.997 57.738C210.861 58.1955 210.789 58.6695 210.783 59.1467H210.749Z" fill="white"/>
<path d="M235.462 60.3809C235.454 60.3254 235.46 60.2687 235.477 60.2155C235.495 60.1623 235.525 60.114 235.565 60.0743C235.604 60.0346 235.653 60.0047 235.706 59.9869C235.759 59.9691 235.816 59.9639 235.871 59.9717H236.831C236.941 59.9692 237.048 60.0074 237.133 60.079C237.176 60.1154 237.211 60.1619 237.233 60.2144C237.255 60.267 237.264 60.3241 237.26 60.3809V64.5468C237.261 64.621 237.245 64.6945 237.213 64.7614C237.178 64.829 237.125 64.885 237.059 64.9224L236.978 64.9761C236.393 65.4014 235.743 65.7298 235.053 65.9488C234.315 66.1817 233.546 66.2972 232.772 66.2909C232.133 66.2945 231.497 66.211 230.88 66.0427C230.285 65.8799 229.714 65.6386 229.183 65.3249C228.657 65.0134 228.173 64.637 227.741 64.2047C227.311 63.7761 226.939 63.2935 226.634 62.7691C226.323 62.2375 226.083 61.6667 225.923 61.0719C225.752 60.4536 225.666 59.8149 225.668 59.1734C225.667 58.5386 225.753 57.9067 225.923 57.2951C226.084 56.6994 226.325 56.1284 226.641 55.5979C226.948 55.0687 227.322 54.5816 227.754 54.1489C228.184 53.7166 228.666 53.3402 229.19 53.0286C229.723 52.717 230.293 52.4736 230.887 52.3041C232.236 51.9349 233.662 51.9676 234.993 52.398C235.711 52.6286 236.39 52.9679 237.005 53.4043C237.074 53.4483 237.131 53.5081 237.173 53.5787C237.217 53.6339 237.24 53.7026 237.24 53.7732C237.244 53.8557 237.218 53.937 237.166 54.0013L236.67 54.8197C236.638 54.8807 236.592 54.9333 236.536 54.9729C236.48 55.0126 236.416 55.0383 236.348 55.0478C236.299 55.0565 236.249 55.0565 236.2 55.0478C236.137 55.0166 236.077 54.9807 236.019 54.9405C235.573 54.6207 235.082 54.3676 234.563 54.1891C234.022 54.0014 233.452 53.9083 232.879 53.9141C232.143 53.9075 231.414 54.0561 230.739 54.3501C229.458 54.9065 228.439 55.9345 227.895 57.2213C227.622 57.8569 227.483 58.542 227.486 59.2338C227.48 59.9489 227.624 60.6573 227.909 61.3134C228.443 62.5777 229.453 63.582 230.719 64.1107C231.355 64.3849 232.04 64.5264 232.732 64.5267C233.188 64.5238 233.641 64.4491 234.074 64.3053C234.523 64.1577 234.979 63.9833 235.449 63.7887L235.462 60.3809Z" fill="white"/>
<path d="M239.004 52.6864C238.928 52.5968 238.889 52.4815 238.896 52.3644C238.896 52.2772 238.99 52.2369 239.131 52.2369H240.64H240.781C240.819 52.2432 240.856 52.2569 240.889 52.2772C240.925 52.3086 240.956 52.3447 240.983 52.3845C240.983 52.4382 241.05 52.5053 241.103 52.5925L244.458 58.3817L247.865 52.5254C247.909 52.4315 247.973 52.3488 248.053 52.2839C248.122 52.2468 248.197 52.224 248.275 52.2168H249.831C249.972 52.2168 250.039 52.2705 250.039 52.3845C250.026 52.4721 249.991 52.555 249.938 52.626C249.549 53.2432 249.167 53.867 248.791 54.5043C248.415 55.1416 248.033 55.7856 247.657 56.4296C247.282 57.0736 246.899 57.7109 246.517 58.3482C246.135 58.9855 245.746 59.6161 245.356 60.2265V65.5932C245.356 65.8883 245.222 66.0426 244.947 66.0426H243.948C243.686 66.0426 243.559 65.8883 243.559 65.5932V60.2265L239.004 52.6864Z" fill="white"/>
<path d="M46.569 46.2466H33.2463L26.585 57.7849L33.2463 69.3232H46.569L53.2304 57.7849L46.569 46.2466Z" fill="#EDEDEE"/>
<path d="M33.3332 46.2466H19.7891L13.0137 57.7849L19.7891 69.3232H33.3332L40.1019 57.7849L33.3332 46.2466Z" fill="#27A8E0"/>
<path d="M19.9841 46.2466H6.66136L0 57.7849L6.66136 69.3232H19.9841L26.6387 57.7849L19.9841 46.2466Z" fill="#1B75BB"/>
<path d="M33.3131 46.2465L39.9677 34.7082L33.3063 23.1699L19.9836 23.1766L13.3223 34.7149L19.9903 46.2465H33.3131Z" fill="#EDEDEE"/>
<path d="M40.0554 34.5609L46.8777 22.7408L40.2902 11.0684L26.8936 11.2159L20.0713 23.036L26.6521 34.7085L40.0554 34.5609Z" fill="#27A8E0"/>
<path d="M46.6364 23.1432L53.2911 11.6048L46.6297 0.0732422L33.307 0.0799505L26.6523 11.6183L33.3137 23.1499L46.6364 23.1432Z" fill="#1B75BB"/>
<path d="M66.5868 34.7619L59.9657 23.1967L46.6497 23.1431L39.9414 34.6545L46.5558 46.2197L59.8785 46.2666L66.5868 34.7619Z" fill="#1B75BB"/>
<path d="M73.2282 46.3807L66.4931 34.6009L53.11 34.4399L46.4688 46.0588L53.2039 57.8386L66.587 57.9928L73.2282 46.3807Z" fill="#27A8E0"/>
<path d="M79.6141 57.5366L73.201 46.3203L59.9789 46.4411L53.1699 57.7781L59.5898 68.9944L72.8119 68.8737L79.6141 57.5366Z" fill="#EDEDEE"/>
</svg>
