<svg width="24" height="24" viewBox="0 0 24 24" fill="none" xmlns="http://www.w3.org/2000/svg">
<path d="M2.85623 0C1.28558 0 0 1.28558 0 2.85623V21.1361C0 22.7068 1.28558 23.9924 2.85623 23.9924H12.4715C12.5332 24.0026 12.5961 24.0026 12.6578 23.9924H15.899C15.9606 24.0026 16.0236 24.0026 16.0853 23.9924H21.1361C22.7068 23.9924 23.9924 22.7068 23.9924 21.1361V2.85623C23.9924 1.28558 22.7068 0 21.1361 0H2.85623ZM2.85623 1.14249H21.1361C22.0892 1.14249 22.8499 1.90312 22.8499 2.85623V21.1361C22.8499 22.0892 22.0892 22.8499 21.1361 22.8499H16.5661V14.8524H18.7485L19.5485 10.8537H16.5661V9.71119C16.5661 9.39272 16.5965 9.36783 16.7034 9.29838C16.8103 9.22892 17.1407 9.13994 17.7086 9.13994H19.4224V5.92334L19.0966 5.76825C19.0966 5.76825 17.7844 5.14122 15.9949 5.14122C14.7096 5.14122 13.6537 5.65331 12.978 6.49793C12.3023 7.34254 11.9962 8.47349 11.9962 9.71119V10.8537H10.2824V14.8524H11.9962V22.8499H2.85623C1.90312 22.8499 1.14249 22.0892 1.14249 21.1361V2.85623C1.14249 1.90312 1.90312 1.14249 2.85623 1.14249ZM15.9949 6.28371C17.1826 6.28371 17.9299 6.5456 18.2799 6.68425V7.99745H17.7086C17.0512 7.99745 16.5244 8.05183 16.0808 8.33998C15.6372 8.62812 15.4237 9.17507 15.4237 9.71119V11.9962H18.1538L17.8113 13.7099H15.4237V22.8499H13.1387V13.7099H11.4249V11.9962H13.1387V9.71119C13.1387 8.66391 13.4038 7.79549 13.8706 7.21199C14.3374 6.62849 14.9952 6.28371 15.9949 6.28371Z" fill="white"/>
</svg>
