<svg width="406" height="104" viewBox="0 0 406 104" fill="none" xmlns="http://www.w3.org/2000/svg">
<path d="M135.19 59.13C135.284 58.7293 135.405 58.3352 135.55 57.95C135.69 57.59 135.81 57.26 135.92 56.95L153.1 14.1999C153.209 13.9024 153.387 13.6351 153.62 13.4199C153.775 13.2727 153.959 13.1586 154.161 13.0847C154.362 13.0108 154.576 12.9785 154.79 12.9899H159.92C160.119 12.972 160.321 12.9966 160.51 13.0621C160.7 13.1276 160.874 13.2325 161.02 13.3699C161.202 13.5787 161.366 13.8029 161.51 14.0399L162.56 16.5299L179.39 58.6199C179.393 58.7349 179.409 58.849 179.44 58.9599C179.452 59.093 179.452 59.2269 179.44 59.36C179.44 59.99 178.98 60.36 178.04 60.36H171.8C171.419 60.3834 171.041 60.2853 170.72 60.08C170.431 59.8414 170.21 59.531 170.08 59.18L169.51 57.72L168.3 54.66C167.89 53.66 167.5 52.66 167.12 51.57H147.46C146.9 53.0499 146.37 54.4499 145.85 55.7599C145.33 57.07 144.85 58.2099 144.52 59.18C144.417 59.5332 144.198 59.8416 143.899 60.0557C143.6 60.2697 143.237 60.3769 142.87 60.36H136.49C136.142 60.3816 135.796 60.3054 135.49 60.1399C135.373 60.0726 135.277 59.9746 135.211 59.8565C135.146 59.7384 135.114 59.6047 135.12 59.47C135.123 59.3534 135.147 59.2383 135.19 59.13ZM157.37 25.1299C156.216 28.0566 155.073 31.0933 153.94 34.24C152.806 37.3866 151.666 40.4166 150.52 43.33H164.09L157.37 25.1299Z" fill="white"/>
<path d="M214.73 25.61C214.462 25.6126 214.199 25.5399 213.97 25.4C213.69 25.2332 213.422 25.046 213.17 24.84H213.1C212.609 24.3601 212.088 23.9125 211.54 23.5C210.137 22.4071 208.557 21.5616 206.87 21C205.984 20.7026 205.055 20.5506 204.12 20.55C203.064 20.5575 202.015 20.7089 201 21C200.18 21.2254 199.405 21.5908 198.71 22.08C198.124 22.5001 197.645 23.0515 197.31 23.69C196.989 24.3075 196.824 24.9942 196.83 25.69C196.823 26.4213 197.079 27.1308 197.55 27.69C198.094 28.318 198.752 28.8371 199.49 29.22C200.397 29.6995 201.34 30.1074 202.31 30.44C203.37 30.82 204.49 31.18 205.66 31.54C206.99 31.95 208.32 32.38 209.66 32.85C210.949 33.3038 212.211 33.8314 213.44 34.43C214.606 34.9924 215.73 35.6409 216.8 36.37C217.812 37.0535 218.719 37.8824 219.49 38.83C220.247 39.7586 220.851 40.8017 221.28 41.92C221.729 43.1497 221.949 44.4511 221.93 45.76C221.96 47.9339 221.48 50.0846 220.53 52.04C219.596 53.8968 218.272 55.5306 216.65 56.83C214.925 58.2036 212.957 59.2415 210.85 59.89C208.537 60.6161 206.124 60.9771 203.7 60.96C202.056 60.9609 200.418 60.7662 198.82 60.38C197.218 60.0028 195.659 59.4599 194.17 58.76C192.684 58.057 191.27 57.2096 189.95 56.23C188.643 55.2599 187.452 54.1425 186.4 52.9L186.33 52.77C185.926 52.3812 185.677 51.8587 185.63 51.3C185.631 51.0635 185.696 50.8317 185.82 50.63C185.986 50.3754 186.181 50.1406 186.4 49.93L187.4 48.88C187.72 48.61 188.06 48.3 188.4 47.96C188.74 47.62 189.12 47.31 189.48 47.03C189.84 46.75 190.18 46.52 190.48 46.33C190.701 46.1726 190.96 46.0761 191.23 46.05C191.53 46.0477 191.822 46.1463 192.06 46.33C192.287 46.4933 192.501 46.6739 192.7 46.87L192.83 47C193.616 47.7279 194.455 48.3964 195.34 49C196.248 49.6346 197.2 50.2027 198.19 50.7C199.121 51.1835 200.095 51.5786 201.1 51.88C201.984 52.1551 202.904 52.3 203.83 52.31C204.939 52.3214 206.043 52.1732 207.11 51.87C208.058 51.6035 208.954 51.1774 209.76 50.61C210.482 50.0786 211.079 49.3961 211.51 48.61C211.936 47.8282 212.157 46.9506 212.15 46.06C212.17 45.1833 211.876 44.3284 211.32 43.65C210.712 42.9369 209.976 42.3434 209.15 41.9C208.195 41.3726 207.19 40.9405 206.15 40.61C205.03 40.25 203.91 39.9167 202.79 39.61C200.463 38.9193 198.188 38.0672 195.98 37.06C194.213 36.2717 192.564 35.2418 191.08 34C189.852 32.9411 188.861 31.6363 188.17 30.17C187.493 28.6753 187.152 27.0506 187.17 25.41C187.136 23.567 187.532 21.7414 188.327 20.0783C189.122 18.4153 190.294 16.9606 191.75 15.83C193.336 14.61 195.132 13.6914 197.05 13.12C199.289 12.4353 201.619 12.098 203.96 12.12C205.961 12.1289 207.949 12.4356 209.86 13.03C211.809 13.6146 213.672 14.4553 215.4 15.53C215.907 15.85 216.427 16.21 216.96 16.61C217.493 17.01 217.983 17.42 218.43 17.84C218.835 18.207 219.203 18.6122 219.53 19.05C219.769 19.3337 219.918 19.6816 219.96 20.05C219.953 20.3238 219.888 20.5931 219.77 20.84C219.643 21.0973 219.481 21.3362 219.29 21.55L218.29 22.55L217.29 23.6C216.978 23.9538 216.644 24.2877 216.29 24.6C215.993 24.8567 215.683 25.097 215.36 25.32C215.179 25.4699 214.962 25.5699 214.73 25.61Z" fill="white"/>
<path d="M258.36 25.61C258.089 25.6113 257.823 25.5387 257.59 25.4C257.314 25.2328 257.05 25.0456 256.8 24.84H256.73C256.24 24.3601 255.719 23.9125 255.17 23.5C254.483 22.979 253.758 22.5109 253 22.1C252.199 21.6634 251.363 21.2954 250.5 21C249.614 20.7025 248.685 20.5505 247.75 20.55C246.683 20.5367 245.62 20.6713 244.59 20.95C243.77 21.1754 242.996 21.5407 242.3 22.03C241.714 22.4526 241.232 23.0032 240.89 23.64C240.577 24.2598 240.416 24.9454 240.42 25.64C240.41 26.3701 240.662 27.0798 241.13 27.64C241.695 28.2707 242.374 28.7897 243.13 29.17C244.035 29.653 244.978 30.061 245.95 30.39C247.01 30.77 248.12 31.13 249.29 31.49C250.63 31.9 251.96 32.33 253.29 32.8C254.555 33.2609 255.794 33.7917 257 34.39C258.169 34.9545 259.295 35.6029 260.37 36.33C261.381 37.016 262.287 37.8446 263.06 38.79C263.818 39.7163 264.419 40.76 264.84 41.88C265.297 43.1077 265.521 44.41 265.5 45.72C265.531 47.8951 265.048 50.0469 264.09 52C263.163 53.8584 261.842 55.4928 260.22 56.79C258.495 58.1635 256.528 59.2015 254.42 59.85C252.107 60.576 249.695 60.937 247.27 60.92C245.626 60.9208 243.988 60.7261 242.39 60.34C240.788 59.9627 239.23 59.4198 237.74 58.72C236.253 58.0192 234.839 57.1716 233.52 56.19C232.224 55.2176 231.043 54.1004 230 52.86L229.94 52.73C229.536 52.3412 229.287 51.8187 229.24 51.26C229.241 51.0234 229.307 50.7917 229.43 50.59C229.596 50.3377 229.787 50.1031 230 49.89L231 48.84C231.32 48.57 231.66 48.26 232 47.92C232.34 47.58 232.73 47.27 233.09 46.99C233.45 46.71 233.78 46.48 234.09 46.29C234.311 46.1326 234.57 46.036 234.84 46.01C235.14 46.0092 235.432 46.1077 235.67 46.29C235.895 46.4558 236.109 46.6362 236.31 46.83L236.43 46.96C237.215 47.6854 238.05 48.3538 238.93 48.96C239.843 49.5924 240.799 50.1604 241.79 50.66C242.72 51.1469 243.694 51.5421 244.7 51.84C245.585 52.115 246.504 52.2599 247.43 52.27C248.539 52.2807 249.644 52.1325 250.71 51.83C251.656 51.5655 252.55 51.1392 253.35 50.57C254.078 50.0416 254.679 49.3585 255.11 48.57C255.533 47.7872 255.75 46.9097 255.74 46.02C255.763 45.1445 255.472 44.2897 254.92 43.61C254.31 42.8991 253.574 42.306 252.75 41.86C251.795 41.3325 250.79 40.9004 249.75 40.57C248.63 40.21 247.51 39.87 246.38 39.57C244.057 38.8795 241.785 38.0274 239.58 37.02C237.826 36.2416 236.187 35.2254 234.71 34C233.48 32.9437 232.488 31.6383 231.8 30.17C231.124 28.6752 230.782 27.0506 230.8 25.41C230.771 23.5667 231.17 21.7419 231.967 20.0794C232.763 18.4169 233.935 16.9622 235.39 15.83C236.974 14.612 238.767 13.6936 240.68 13.12C242.922 12.4359 245.256 12.0987 247.6 12.12C249.598 12.1274 251.583 12.4342 253.49 13.03C255.443 13.6122 257.31 14.453 259.04 15.53C259.547 15.85 260.067 16.21 260.6 16.61C261.134 17.01 261.624 17.42 262.07 17.84C262.472 18.2096 262.841 18.6145 263.17 19.05C263.409 19.3336 263.559 19.6815 263.6 20.05C263.594 20.3251 263.526 20.5953 263.4 20.84C263.28 21.099 263.122 21.3384 262.93 21.55L261.93 22.55L260.93 23.6C260.618 23.9537 260.284 24.2877 259.93 24.6C259.59 24.89 259.28 25.13 259.01 25.32C258.823 25.473 258.599 25.5732 258.36 25.61Z" fill="white"/>
<path d="M283.92 41.1C283.894 42.7351 284.152 44.3624 284.68 45.91C285.143 47.2503 285.875 48.482 286.83 49.53C287.759 50.5154 288.892 51.2866 290.15 51.79C291.513 52.325 292.966 52.5899 294.43 52.57C295.957 52.5938 297.474 52.3116 298.89 51.74C300.163 51.2229 301.302 50.4227 302.22 49.4C303.156 48.3427 303.865 47.1035 304.3 45.76C304.783 44.2546 305.02 42.6809 305 41.1V14.39C304.997 14.2033 305.033 14.0181 305.105 13.8459C305.177 13.6738 305.285 13.5186 305.42 13.39C305.686 13.1268 306.046 12.9795 306.42 12.98H312.58C312.995 12.9697 313.398 13.1161 313.71 13.39C313.856 13.5124 313.972 13.6656 314.052 13.8385C314.132 14.0113 314.172 14.1997 314.17 14.39V41.45C314.234 44.4017 313.693 47.3353 312.58 50.07C311.626 52.3722 310.184 54.4404 308.354 56.1322C306.525 57.8239 304.35 59.0991 301.98 59.87C299.525 60.6818 296.955 61.0904 294.37 61.08C291.778 61.0952 289.203 60.6586 286.76 59.79C284.441 58.9583 282.312 57.6695 280.5 56C278.651 54.2748 277.185 52.1793 276.2 49.85C275.098 47.1855 274.557 44.3227 274.61 41.44V14.39C274.604 14.0221 274.736 13.6653 274.98 13.39C275.092 13.2487 275.235 13.1354 275.398 13.059C275.561 12.9826 275.74 12.9453 275.92 12.95H282.42C282.79 12.9681 283.143 13.1129 283.42 13.36C283.577 13.4754 283.705 13.6259 283.794 13.7995C283.882 13.9731 283.929 14.1651 283.93 14.36L283.92 41.1Z" fill="white"/>
<path d="M325.25 14.4901C325.25 13.4901 325.72 12.9901 326.65 12.9901H346.15C348.212 12.9767 350.254 13.3886 352.15 14.2001C353.972 14.9761 355.631 16.0889 357.04 17.4801C358.463 18.9038 359.591 20.594 360.359 22.454C361.128 24.3141 361.522 26.3074 361.52 28.3201C361.523 29.7423 361.317 31.1574 360.91 32.5201C360.125 35.1413 358.65 37.5035 356.64 39.3601C355.642 40.2796 354.53 41.0662 353.33 41.7001L361.61 58.0501C361.655 58.2734 361.733 58.489 361.84 58.6901C361.943 58.8984 361.998 59.1275 362 59.3601C362 59.9901 361.62 60.3601 360.88 60.3601H353.49C353.137 60.3635 352.793 60.2419 352.521 60.0169C352.248 59.7919 352.064 59.4778 352 59.1301L344.28 43.8401H343.18H341.56H334.56V58.9401C334.56 59.8601 334.07 60.3101 333.1 60.3101H326.69C326.328 60.3218 325.974 60.2049 325.69 59.9801C325.56 59.8491 325.46 59.6925 325.394 59.5203C325.329 59.3481 325.3 59.164 325.31 58.9801L325.25 14.4901ZM352.11 28.3601C352.11 27.4523 351.937 26.5529 351.6 25.7101C350.94 23.9654 349.643 22.536 347.97 21.7101C347.104 21.2893 346.162 21.0478 345.2 21.0001H343H334.5V35.7401H344.11C344.483 35.7401 344.883 35.7201 345.31 35.6801C346.263 35.6217 347.195 35.3842 348.06 34.9801C348.879 34.5955 349.61 34.0476 350.21 33.3701C350.812 32.7003 351.284 31.9235 351.6 31.0801C351.938 30.2131 352.111 29.2906 352.11 28.3601Z" fill="white"/>
<path d="M371.11 14.52C371.11 13.52 371.57 12.99 372.51 12.99H403.23C403.449 12.9669 403.671 12.9966 403.876 13.0767C404.081 13.1567 404.264 13.2847 404.41 13.45C404.652 13.7912 404.775 14.2022 404.76 14.62V20.25C404.757 20.6218 404.614 20.9788 404.36 21.25C404.207 21.4077 404.021 21.5297 403.815 21.6074C403.609 21.6852 403.389 21.7168 403.17 21.7H380.51V31.36H398C398.176 31.3296 398.357 31.338 398.53 31.3846C398.703 31.4313 398.863 31.515 399 31.63C399.141 31.7796 399.249 31.9581 399.314 32.1532C399.38 32.3483 399.402 32.5554 399.38 32.76V38.53C399.382 38.8874 399.274 39.2367 399.07 39.53C398.95 39.6773 398.797 39.7939 398.623 39.8704C398.449 39.9469 398.26 39.9811 398.07 39.97H380.51V51.58H404C404.212 51.5506 404.428 51.5705 404.631 51.6382C404.834 51.7058 405.018 51.8194 405.17 51.97C405.393 52.321 405.495 52.7356 405.46 53.15V59C405.46 59.9 404.99 60.34 404.06 60.34H372.51C372.15 60.3529 371.796 60.2398 371.51 60.02C371.369 59.8965 371.258 59.7419 371.187 59.5683C371.116 59.3948 371.086 59.2071 371.1 59.02L371.11 14.52Z" fill="white"/>
<path d="M184.12 77.76C184.282 77.7577 184.441 77.8106 184.57 77.91C184.639 77.9657 184.695 78.0356 184.735 78.115C184.774 78.1943 184.797 78.2813 184.8 78.37V79.7799C184.804 79.9537 184.747 80.1233 184.64 80.26C184.573 80.3292 184.492 80.383 184.402 80.4175C184.312 80.4521 184.216 80.4665 184.12 80.4599H178.34V97.7699C178.338 97.9324 178.278 98.0887 178.17 98.2099C178.111 98.2764 178.039 98.3288 177.958 98.3634C177.876 98.3981 177.788 98.414 177.7 98.41H176.29C176.125 98.4087 175.968 98.3442 175.85 98.23C175.787 98.1713 175.738 98.0999 175.705 98.0206C175.672 97.9412 175.657 97.8557 175.66 97.7699V80.4599H169.84C169.673 80.464 169.512 80.403 169.39 80.2899C169.322 80.2246 169.27 80.1448 169.237 80.0565C169.204 79.9683 169.191 79.8738 169.2 79.7799V78.37C169.196 78.287 169.211 78.2044 169.244 78.1282C169.277 78.052 169.327 77.9842 169.39 77.9299C169.512 77.8169 169.673 77.7559 169.84 77.76H184.12Z" fill="white"/>
<path d="M202.35 77.76C202.77 77.76 202.99 77.98 202.99 78.43V79.8C202.991 79.9671 202.934 80.1295 202.83 80.26C202.765 80.3296 202.686 80.3837 202.598 80.4183C202.51 80.453 202.415 80.4672 202.32 80.46H191.11V86.17H199.93C200.087 86.1656 200.24 86.219 200.36 86.32C200.425 86.3828 200.475 86.4596 200.506 86.5444C200.537 86.6293 200.549 86.72 200.54 86.81V88.23C200.542 88.3896 200.489 88.5451 200.39 88.67C200.334 88.7368 200.263 88.7897 200.184 88.8244C200.104 88.8591 200.017 88.8747 199.93 88.87H191.11V95.71H202.38C202.468 95.6981 202.557 95.7069 202.641 95.7355C202.724 95.7641 202.8 95.8119 202.863 95.875C202.925 95.938 202.971 96.0147 202.999 96.0989C203.026 96.1831 203.033 96.2725 203.02 96.36V97.79C203.032 97.8741 203.024 97.9598 202.996 98.0403C202.969 98.1209 202.924 98.194 202.864 98.2541C202.804 98.3141 202.731 98.3595 202.65 98.3865C202.57 98.4136 202.484 98.4216 202.4 98.41H189C188.919 98.4231 188.835 98.4171 188.757 98.3923C188.678 98.3676 188.606 98.325 188.547 98.2677C188.488 98.2104 188.443 98.1402 188.416 98.0624C188.388 97.9847 188.38 97.9017 188.39 97.82V78.4C188.39 77.97 188.59 77.76 189 77.76H202.35Z" fill="white"/>
<path d="M222.8 79.5C222.899 79.5708 222.983 79.6589 223.05 79.76C223.111 79.8447 223.146 79.9456 223.15 80.05C223.154 80.1743 223.111 80.2955 223.03 80.39L222.3 81.61C222.14 81.83 221.98 81.95 221.81 81.95C221.741 81.9628 221.67 81.9628 221.6 81.95C221.506 81.9035 221.416 81.85 221.33 81.79C220.685 81.3237 219.974 80.9563 219.22 80.7C218.468 80.4453 217.684 80.2972 216.89 80.26C215.755 80.2461 214.629 80.4638 213.58 80.9C212.624 81.3015 211.75 81.8742 211 82.59C210.266 83.3139 209.678 84.173 209.27 85.12C208.856 86.0659 208.641 87.0873 208.64 88.12C208.633 89.1998 208.851 90.2693 209.28 91.26C209.687 92.2026 210.271 93.0581 211 93.78C211.724 94.4733 212.572 95.023 213.5 95.4C214.452 95.7919 215.471 95.9924 216.5 95.99C216.882 95.9898 217.263 95.9598 217.64 95.9C218.035 95.8435 218.423 95.7498 218.8 95.62C219.209 95.4683 219.61 95.2947 220 95.1C220.471 94.8746 220.925 94.6174 221.36 94.33C221.49 94.2476 221.637 94.1963 221.79 94.18C221.96 94.18 222.11 94.3 222.25 94.53L223.04 95.83C223.103 95.9327 223.137 96.0499 223.14 96.17C223.139 96.2801 223.108 96.3878 223.05 96.4813C222.991 96.5748 222.909 96.6504 222.81 96.7C221.929 97.334 220.959 97.8328 219.93 98.18C217.915 98.8274 215.756 98.883 213.71 98.34C212.824 98.0954 211.973 97.7357 211.18 97.27C210.385 96.8083 209.653 96.2471 209 95.6C208.354 94.964 207.795 94.2443 207.34 93.46C206.88 92.6655 206.524 91.8152 206.28 90.93C205.787 89.0824 205.787 87.1376 206.28 85.29C206.765 83.5173 207.702 81.9011 209 80.6C209.639 79.9526 210.362 79.3943 211.15 78.94C211.948 78.4748 212.802 78.1119 213.69 77.86C214.612 77.6052 215.564 77.4773 216.52 77.48C217.638 77.4721 218.749 77.6477 219.81 78C220.878 78.3446 221.886 78.8505 222.8 79.5Z" fill="white"/>
<path d="M241.4 78.37C241.4 78.2103 241.461 78.0566 241.57 77.94C241.626 77.8801 241.694 77.833 241.77 77.802C241.846 77.7709 241.928 77.7566 242.01 77.76H243.42C243.585 77.7617 243.745 77.822 243.87 77.93C243.937 77.9818 243.991 78.0485 244.027 78.125C244.064 78.2014 244.082 78.2853 244.08 78.37V97.79C244.08 98.2 243.86 98.41 243.42 98.41H242C241.916 98.4221 241.831 98.4142 241.751 98.3872C241.67 98.3601 241.598 98.3146 241.538 98.2542C241.479 98.1939 241.435 98.1204 241.409 98.0398C241.383 97.9592 241.377 97.8736 241.39 97.79V88.87H229.68V97.79C229.68 98.2 229.46 98.41 229.01 98.41H227.61C227.526 98.4221 227.441 98.4142 227.361 98.3872C227.28 98.3601 227.208 98.3146 227.148 98.2542C227.089 98.1939 227.045 98.1204 227.019 98.0398C226.993 97.9592 226.987 97.8736 227 97.79V78.37C226.996 78.2115 227.054 78.0576 227.16 77.94C227.218 77.8804 227.289 77.8336 227.366 77.8026C227.443 77.7716 227.527 77.7571 227.61 77.76H229C229.168 77.7587 229.329 77.8233 229.45 77.94C229.51 77.9941 229.559 78.0604 229.591 78.1345C229.624 78.2087 229.641 78.289 229.64 78.37V86.17H241.4V78.37Z" fill="white"/>
<path d="M264.3 98.4099C264.194 98.4051 264.09 98.3743 263.997 98.3203C263.905 98.2663 263.827 98.1907 263.77 98.0999L251.63 81.8299V97.8299C251.641 97.9156 251.631 98.0024 251.602 98.0837C251.573 98.165 251.526 98.2385 251.464 98.2985C251.402 98.3585 251.327 98.4034 251.245 98.4297C251.163 98.4559 251.076 98.4629 250.99 98.4499H249.59C249.507 98.462 249.421 98.4542 249.341 98.4271C249.261 98.4 249.188 98.3545 249.129 98.2942C249.069 98.2338 249.025 98.1604 248.999 98.0797C248.973 97.9991 248.967 97.9135 248.98 97.8299V78.3999C248.972 78.2317 249.03 78.0667 249.14 77.9399C249.199 77.8803 249.269 77.8335 249.346 77.8025C249.424 77.7715 249.507 77.757 249.59 77.7599H251.45C251.567 77.7576 251.682 77.7848 251.785 77.839C251.889 77.8932 251.976 77.9727 252.04 78.0699L263.87 93.7899V78.2799C263.874 78.2049 263.893 78.1315 263.926 78.0641C263.959 77.9967 264.006 77.9367 264.063 77.888C264.12 77.8393 264.187 77.8028 264.258 77.7808C264.33 77.7588 264.406 77.7517 264.48 77.7599H265.88C266.052 77.7635 266.217 77.8233 266.35 77.9299C266.418 77.9817 266.471 78.0485 266.508 78.1249C266.544 78.2013 266.562 78.2853 266.56 78.3699V97.7899C266.56 98.1999 266.34 98.4099 265.88 98.4099H264.3Z" fill="white"/>
<path d="M281.43 77.48C283.307 77.4791 285.151 77.9797 286.77 78.93C287.552 79.3934 288.274 79.9508 288.92 80.59C289.567 81.2295 290.125 81.9526 290.58 82.74C291.044 83.5443 291.404 84.4046 291.65 85.3C291.909 86.2208 292.037 87.1735 292.03 88.13C292.035 89.0824 291.91 90.031 291.66 90.95C291.414 91.8358 291.054 92.6862 290.59 93.48C290.123 94.2563 289.566 94.9747 288.93 95.62C288.285 96.2582 287.563 96.8126 286.78 97.27C284.292 98.6978 281.34 99.0825 278.57 98.34C277.67 98.0987 276.805 97.7389 276 97.27C275.219 96.8054 274.5 96.2443 273.86 95.6C273.213 94.964 272.655 94.2442 272.2 93.46C271.736 92.6675 271.379 91.8167 271.14 90.93C270.633 89.0841 270.633 87.1358 271.14 85.29C271.628 83.5162 272.568 81.8999 273.87 80.6C274.509 79.9526 275.232 79.3943 276.02 78.94C276.818 78.4747 277.671 78.1119 278.56 77.86C279.494 77.6015 280.46 77.4736 281.43 77.48ZM273.43 88.06C273.429 88.7733 273.526 89.4834 273.72 90.17C273.908 90.8306 274.176 91.4654 274.52 92.06C275.204 93.2372 276.183 94.2159 277.36 94.9C277.952 95.2477 278.588 95.5166 279.25 95.7C280.627 96.0869 282.083 96.0869 283.46 95.7C284.775 95.3414 285.976 94.653 286.95 93.7C287.426 93.2176 287.84 92.6766 288.18 92.09C288.528 91.4974 288.797 90.8621 288.98 90.2C289.173 89.5134 289.271 88.8033 289.27 88.09C289.277 87.0306 289.062 85.9816 288.64 85.01C287.84 83.1169 286.333 81.6103 284.44 80.81C283.468 80.3879 282.419 80.1733 281.36 80.18C280.647 80.1788 279.936 80.2764 279.25 80.47C278.588 80.6533 277.952 80.9222 277.36 81.27C276.775 81.6076 276.237 82.0212 275.76 82.5C275.28 82.9779 274.863 83.5157 274.52 84.1C274.176 84.6945 273.908 85.3294 273.72 85.99C273.544 86.6656 273.46 87.3619 273.47 88.06H273.43Z" fill="white"/>
<path d="M308.83 95.71C308.99 95.7081 309.144 95.7691 309.26 95.88C309.321 95.9436 309.368 96.019 309.399 96.1015C309.43 96.184 309.444 96.272 309.44 96.36V97.79C309.441 97.953 309.38 98.1103 309.27 98.23C309.214 98.2899 309.145 98.337 309.069 98.3681C308.993 98.3991 308.912 98.4134 308.83 98.41H297C296.916 98.4221 296.83 98.4142 296.75 98.3872C296.67 98.3601 296.597 98.3146 296.538 98.2542C296.479 98.1939 296.434 98.1204 296.408 98.0398C296.383 97.9592 296.376 97.8736 296.39 97.79V78.37C296.388 78.2906 296.402 78.2116 296.431 78.1377C296.46 78.0638 296.504 77.9965 296.56 77.94C296.62 77.8778 296.694 77.8294 296.775 77.7984C296.856 77.7673 296.943 77.7542 297.03 77.76H298.46C298.62 77.7541 298.776 77.8075 298.9 77.91C298.958 77.9711 299.003 78.0434 299.032 78.1225C299.061 78.2016 299.074 78.2858 299.07 78.37V95.71H308.83Z" fill="white"/>
<path d="M322.16 77.48C324.041 77.4773 325.888 77.978 327.51 78.93C328.29 79.3911 329.009 79.9488 329.65 80.59C330.3 81.2292 330.861 81.9523 331.32 82.74C331.776 83.5484 332.135 84.4076 332.39 85.3C332.897 87.1492 332.897 89.1007 332.39 90.95C332.148 91.8373 331.788 92.6883 331.32 93.48C330.86 94.2609 330.302 94.98 329.66 95.62C328.364 96.9095 326.76 97.8459 325 98.34C323.631 98.7196 322.2 98.8206 320.792 98.6368C319.383 98.453 318.026 97.9882 316.8 97.27C316.021 96.8029 315.302 96.242 314.66 95.6C313.345 94.2693 312.402 92.617 311.924 90.8079C311.447 88.9989 311.452 87.0963 311.94 85.29C312.183 84.4014 312.539 83.5478 313 82.75C313.464 81.9662 314.026 81.2439 314.67 80.6C315.305 79.9528 316.025 79.3944 316.81 78.94C317.609 78.4768 318.462 78.1141 319.35 77.86C320.265 77.6076 321.211 77.4798 322.16 77.48ZM314.16 88.06C314.156 88.7729 314.25 89.4829 314.44 90.17C314.628 90.8306 314.896 91.4654 315.24 92.06C315.587 92.6447 316.003 93.1853 316.48 93.67C316.96 94.1489 317.502 94.5625 318.09 94.9C318.681 95.2512 319.317 95.5204 319.98 95.7C321.353 96.0866 322.807 96.0866 324.18 95.7C324.843 95.5204 325.479 95.2512 326.07 94.9C326.655 94.5623 327.193 94.1488 327.67 93.67C328.182 93.1937 328.629 92.6525 329 92.06C329.344 91.4654 329.612 90.8306 329.8 90.17C330.268 88.4504 330.148 86.6238 329.46 84.98C329.057 84.0434 328.48 83.1918 327.76 82.47C327.04 81.7508 326.187 81.177 325.25 80.78C324.279 80.3571 323.229 80.1424 322.17 80.15C321.46 80.1489 320.753 80.2465 320.07 80.44C319.407 80.6196 318.771 80.8888 318.18 81.24C317.592 81.5775 317.05 81.991 316.57 82.47C316.096 82.9531 315.68 83.4901 315.33 84.07C314.986 84.6646 314.718 85.2994 314.53 85.96C314.328 86.642 314.22 87.3486 314.21 88.06H314.16Z" fill="white"/>
<path d="M351 89.9C350.989 89.8172 350.997 89.7328 351.023 89.6535C351.05 89.5741 351.094 89.5021 351.153 89.4429C351.212 89.3838 351.285 89.3392 351.364 89.3126C351.443 89.2861 351.528 89.2784 351.61 89.29H353.04C353.205 89.2863 353.365 89.3432 353.49 89.45C353.556 89.5043 353.607 89.5735 353.64 89.6518C353.673 89.7302 353.687 89.8153 353.68 89.9V96.11C353.682 96.2207 353.658 96.3303 353.61 96.43C353.559 96.5308 353.479 96.6142 353.38 96.67L353.26 96.75C352.388 97.384 351.419 97.8735 350.39 98.2C349.291 98.5472 348.143 98.7193 346.99 98.71C346.038 98.7153 345.089 98.5908 344.17 98.34C343.283 98.0974 342.432 97.7375 341.64 97.27C340.857 96.8056 340.134 96.2445 339.49 95.6C338.85 94.9612 338.295 94.2418 337.84 93.46C337.376 92.6676 337.02 91.8167 336.78 90.93C336.526 90.0084 336.398 89.0563 336.4 88.1C336.399 87.1538 336.527 86.2117 336.78 85.3C337.021 84.412 337.381 83.5609 337.85 82.77C338.308 81.9812 338.866 81.2551 339.51 80.61C340.151 79.9657 340.87 79.4046 341.65 78.94C342.445 78.4756 343.295 78.1127 344.18 77.86C346.191 77.3097 348.318 77.3584 350.3 78C351.371 78.3437 352.383 78.8496 353.3 79.5C353.403 79.5657 353.489 79.6548 353.55 79.76C353.616 79.8424 353.651 79.9448 353.65 80.05C353.657 80.173 353.618 80.2941 353.54 80.39L352.8 81.61C352.753 81.701 352.685 81.7793 352.602 81.8384C352.518 81.8976 352.422 81.9359 352.32 81.95C352.248 81.9629 352.173 81.9629 352.1 81.95C352.007 81.9035 351.916 81.8501 351.83 81.79C351.165 81.3134 350.434 80.9361 349.66 80.67C348.854 80.3901 348.004 80.2514 347.15 80.26C346.053 80.2502 344.966 80.4717 343.96 80.91C342.05 81.7393 340.532 83.2719 339.72 85.19C339.313 86.1375 339.106 87.1588 339.11 88.19C339.102 89.256 339.316 90.312 339.74 91.29C340.538 93.1747 342.042 94.6718 343.93 95.46C344.878 95.8687 345.899 96.0797 346.93 96.08C347.61 96.0758 348.285 95.9644 348.93 95.75C349.6 95.53 350.28 95.27 350.98 94.98L351 89.9Z" fill="white"/>
<path d="M356.28 78.43C356.167 78.2965 356.11 78.1246 356.12 77.95C356.12 77.82 356.26 77.76 356.47 77.76H358.72H358.93C358.987 77.7693 359.041 77.7897 359.09 77.82C359.144 77.8668 359.191 77.9206 359.23 77.98C359.23 78.06 359.33 78.16 359.41 78.29L364.41 86.92L369.49 78.19C369.555 78.05 369.651 77.9268 369.77 77.83C369.872 77.7747 369.985 77.7407 370.1 77.73H372.42C372.63 77.73 372.73 77.81 372.73 77.98C372.711 78.1105 372.659 78.2342 372.58 78.34C372 79.26 371.43 80.19 370.87 81.14C370.31 82.09 369.74 83.05 369.18 84.01C368.62 84.97 368.05 85.92 367.48 86.87C366.91 87.82 366.33 88.76 365.75 89.67V97.67C365.75 98.11 365.55 98.34 365.14 98.34H363.65C363.26 98.34 363.07 98.11 363.07 97.67V89.67L356.28 78.43Z" fill="white"/>
<path d="M69.4199 68.83H49.5599L39.6299 86.03L49.5599 103.23H69.4199L79.3499 86.03L69.4199 68.83Z" fill="#EDEDEE"/>
<path d="M49.6904 68.83H29.5004L19.4004 86.03L29.5004 103.23H49.6904L59.7804 86.03L49.6904 68.83Z" fill="#27A8E0"/>
<path d="M29.79 68.83H9.93L0 86.03L9.93 103.23H29.79L39.71 86.03L29.79 68.83Z" fill="#1B75BB"/>
<path d="M49.6604 68.8301L59.5804 51.6301L49.6504 34.4301L29.7904 34.4401L19.8604 51.6401L29.8004 68.8301H49.6604Z" fill="#EDEDEE"/>
<path d="M59.7099 51.41L69.8799 33.79L60.0599 16.39L40.0899 16.61L29.9199 34.23L39.7299 51.63L59.7099 51.41Z" fill="#27A8E0"/>
<path d="M69.5205 34.39L79.4405 17.19L69.5105 0L49.6505 0.01L39.7305 17.21L49.6605 34.4L69.5205 34.39Z" fill="#1B75BB"/>
<path d="M99.26 51.71L89.39 34.47L69.54 34.39L59.54 51.55L69.4 68.79L89.26 68.86L99.26 51.71Z" fill="#1B75BB"/>
<path d="M109.16 69.03L99.1195 51.47L79.1695 51.23L69.2695 68.55L79.3095 86.11L99.2595 86.34L109.16 69.03Z" fill="#27A8E0"/>
<path d="M118.68 85.6599L109.12 68.9399L89.4098 69.1199L79.2598 86.0199L88.8298 102.74L108.54 102.56L118.68 85.6599Z" fill="#EDEDEE"/>
</svg>
