<svg width="24" height="20" viewBox="0 0 24 20" fill="none" xmlns="http://www.w3.org/2000/svg">
<path d="M16.4206 0C13.5514 0 11.2182 2.3332 11.2182 5.20238C11.2182 5.37479 11.2613 5.54346 11.2782 5.71212C7.7306 5.37292 4.59343 3.66378 2.46263 1.04947C2.3633 0.923909 2.20963 0.856444 2.04846 0.867688C1.88917 0.878932 1.74674 0.970761 1.66803 1.10944C1.22013 1.87968 0.963383 2.76611 0.963383 3.71813C0.963383 4.87067 1.37568 5.92577 2.01285 6.79158C1.88917 6.73723 1.75423 6.70725 1.63804 6.64165C1.48999 6.56294 1.31196 6.56669 1.16765 6.6529C1.02335 6.7391 0.935272 6.89465 0.933398 7.06144V7.12141C0.933398 8.88865 1.84794 10.4235 3.19726 11.3643C3.18227 11.3624 3.16727 11.368 3.15228 11.3643C2.98736 11.3362 2.82057 11.3943 2.71 11.5198C2.59943 11.6454 2.56383 11.8197 2.61255 11.979C3.14853 13.645 4.51659 14.9175 6.21074 15.3823C4.86142 16.1843 3.29658 16.6566 1.60806 16.6566C1.24262 16.6566 0.892169 16.6379 0.543594 16.5966C0.318708 16.5667 0.103191 16.6978 0.0282291 16.9115C-0.0486072 17.1251 0.0357253 17.3631 0.228753 17.4812C2.39329 18.8699 4.96262 19.6851 7.72498 19.6851C12.2021 19.6851 15.7141 17.8148 18.0698 15.1424C20.4255 12.47 21.653 8.99922 21.653 5.7571C21.653 5.62029 21.6417 5.48724 21.638 5.3523C22.5169 4.67952 23.3021 3.89054 23.9168 2.9685C24.0386 2.79047 24.0255 2.55246 23.885 2.38755C23.7463 2.22263 23.512 2.17203 23.3171 2.26386C23.0697 2.37443 22.7811 2.38567 22.5225 2.47375C22.8636 2.01836 23.156 1.52736 23.3321 0.974509C23.3921 0.78523 23.3265 0.577209 23.1709 0.453522C23.0154 0.331708 22.798 0.316715 22.6275 0.419789C21.8085 0.905169 20.9015 1.24625 19.9438 1.45427C19.0143 0.584705 17.7905 0 16.4206 0ZM16.4206 0.959517C17.6444 0.959517 18.75 1.48238 19.524 2.30884C19.6402 2.42878 19.8108 2.47938 19.9738 2.44377C20.5997 2.32008 21.1938 2.1383 21.7729 1.90404C21.4393 2.35381 21.027 2.738 20.5435 3.02847C20.3243 3.1353 20.2212 3.38829 20.3018 3.6188C20.3805 3.84744 20.6204 3.98049 20.8584 3.92802C21.3381 3.86993 21.7654 3.67502 22.2227 3.55321C21.8123 3.99736 21.3625 4.39841 20.8734 4.75261C20.7403 4.85006 20.6672 5.00748 20.6785 5.17239C20.6859 5.3673 20.6934 5.56032 20.6934 5.7571C20.6934 8.75559 19.5428 12.0108 17.3501 14.4977C15.1575 16.9846 11.9379 18.7256 7.72498 18.7256C5.81157 18.7256 4.00498 18.302 2.37267 17.5562C4.39665 17.4006 6.26321 16.6847 7.76995 15.5022C7.92737 15.3766 7.98922 15.1667 7.9255 14.9756C7.86178 14.7844 7.68562 14.6532 7.4851 14.6476C5.90339 14.6195 4.57844 13.6993 3.87192 12.3988C3.89815 12.3988 3.92064 12.3988 3.94688 12.3988C4.42102 12.3988 4.88953 12.3388 5.32619 12.2188C5.53608 12.157 5.68038 11.9621 5.67289 11.7428C5.66539 11.5236 5.50984 11.3362 5.2962 11.2893C3.58894 10.9445 2.30896 9.55394 2.01285 7.82606C2.49636 7.99285 2.99111 8.12403 3.52709 8.1409C3.74636 8.15402 3.94501 8.01721 4.01247 7.80919C4.07994 7.60117 3.99748 7.37254 3.81195 7.25634C2.67252 6.4936 1.9229 5.19488 1.9229 3.71813C1.9229 3.1709 2.06533 2.66866 2.25273 2.1889C4.65153 4.82195 8.00983 6.57044 11.8029 6.76159C11.9528 6.76909 12.099 6.70725 12.1965 6.59293C12.2939 6.47674 12.3314 6.32306 12.2977 6.17689C12.2246 5.8658 12.1777 5.53596 12.1777 5.20238C12.1777 2.85231 14.0705 0.959517 16.4206 0.959517Z" fill="white"/>
</svg>
